# Blender v2.69 (sub 0) OBJ File: 'cleffa.blend'
# www.blender.org
o cleffa
v -1.279298 0.000000 -0.972602
v -1.332370 0.000000 -0.957404
v -1.405982 0.000000 -0.983677
v -1.461974 0.000000 -1.098471
v -1.477280 0.000000 -1.243937
v -1.419080 0.000000 -1.391644
v -1.304156 0.000000 -1.555271
v -1.111942 -0.000000 -1.677634
v -0.978676 0.000000 -1.724930
v -0.770074 -0.000000 -1.733172
v -0.630859 0.000000 -1.692579
v -0.508769 0.000000 -1.601876
v -0.417402 -0.000000 -1.449654
v -0.340216 0.000000 -1.182755
v -0.337524 0.000000 -0.993086
v -0.385457 0.000000 -0.804767
v -0.545472 0.000000 -0.503966
v -0.698883 0.000000 -0.319330
v -0.952809 0.000000 -0.091493
v -1.061880 0.000000 -0.008746
v -1.128612 0.000000 -0.022103
v -1.082940 0.000000 -0.056538
v -0.945883 0.000000 -0.176734
v -0.746875 0.000000 -0.397418
v -0.591364 0.000000 -0.645877
v -0.520806 0.000000 -0.868588
v -0.513975 0.000000 -1.090811
v -0.562715 0.000000 -1.295287
v -0.664235 0.000000 -1.492686
v -0.811335 0.000000 -1.606838
v -0.918889 0.000000 -1.630171
v -1.031298 -0.000000 -1.622409
v -1.182145 0.000000 -1.524386
v -1.275765 0.000000 -1.373082
v -1.289871 0.000000 -1.194134
v -1.240035 0.000000 -1.090331
v -1.155571 -0.000000 -1.083871
vn 0.000000 1.000000 0.000000
s off
f 20//1 22//1 21//1
f 20//1 19//1 22//1
f 23//1 22//1 19//1
f 19//1 18//1 23//1
f 23//1 18//1 24//1
f 18//1 17//1 24//1
f 24//1 17//1 25//1
f 26//1 15//1 27//1
f 16//1 15//1 26//1
f 17//1 16//1 25//1
f 25//1 16//1 26//1
f 15//1 14//1 27//1
f 28//1 27//1 14//1
f 14//1 13//1 28//1
f 28//1 13//1 29//1
f 13//1 12//1 29//1
f 12//1 11//1 29//1
f 29//1 11//1 30//1
f 11//1 10//1 30//1
f 30//1 10//1 31//1
f 10//1 9//1 31//1
f 31//1 9//1 32//1
f 9//1 8//1 32//1
f 33//1 32//1 8//1
f 33//1 8//1 7//1
f 34//1 33//1 7//1
f 6//1 5//1 35//1
f 5//1 4//1 35//1
f 4//1 3//1 35//1
f 35//1 3//1 36//1
f 3//1 2//1 36//1
f 2//1 1//1 36//1
f 37//1 36//1 1//1
f 7//1 6//1 34//1
f 35//1 34//1 6//1
